# xmcd
#
# Track frame offsets:
#	150
#	21506
#	46994
#	67125
#	90176
#	111464
#	138475
#	157551
#	180817
#	201223
#
# Disc length: 2956 seconds
#
# Revision: 0
# Processed by: cddbd v1.5.2PL0 Copyright (c) Steve Scherf et al.
# Submitted via: EasyCDDAExtractor 11.9.9.666
#
DISCID=7d0b8a0a
DTITLE=Various Artist - Call Me Blessed
DYEAR=2008
DGENRE=Worship
TTITLE0=Jonathan Prawira - 1. Berkat Tuhan Yang Menjadikan Kaya
TTITLE1=Wawan Yap - 2. Pertolongan Yang Ajaib
TTITLE2=Feby Febiola - 3. Baik Adanya
TTITLE3=Lea Simanjuntak - 4. Kukan Terbang
TTITLE4=Nobo Idol - 5. Kau Dasar Imanku
TTITLE5=Wisnu Idol - 6. Aku Diberkati
TTITLE6=Seto Pariadji - 7. Segala Kuasa Ada Di Tangan Tuhan
TTITLE7=Regina Pangkerego - 8. Tiang Awan Tiang Api
TTITLE8=Cornelia Pattiasina - 9. Umat Yang MengenalMu
TTITLE9=Yahya Cahya S.A. - 10. Berkat Baru
EXTD=
EXTT0=
EXTT1=
EXTT2=
EXTT3=
EXTT4=
EXTT5=
EXTT6=
EXTT7=
EXTT8=
EXTT9=
PLAYORDER=
